<?xml version="1.0" encoding="utf-8"?>
<!-- Generator: Adobe Illustrator 24.0.3, SVG Export Plug-In . SVG Version: 6.00 Build 0)  -->
<svg version="1.1" id="Layer_1" xmlns="http://www.w3.org/2000/svg" xmlns:xlink="http://www.w3.org/1999/xlink" x="0px" y="0px"
	 viewBox="0 0 50 50" style="enable-background:new 0 0 50 50;" xml:space="preserve">
<style type="text/css">
	.st0{fill:#08335e;}
</style>
<path class="st0" d="M35.58,45.16c-0.28,0-0.56-0.01-0.85-0.04c-2.53-0.2-5.07-0.99-8.21-2.56c-3.88-1.93-7.35-4.38-10.31-7.28
	c-5.04-4.93-8.43-10.05-10.36-15.66c-0.66-1.92-0.96-3.67-0.92-5.37c0.04-1.93,0.71-3.57,1.99-4.87c1.01-1.03,2.03-2.06,3.06-3.06
	c0.76-0.75,1.68-1.24,2.74-1.46l1.11-0.01c1.58,0.3,2.58,1.23,3.41,2.08c0.56,0.57,1.12,1.13,1.69,1.7
	c0.97,0.97,1.94,1.94,2.87,2.95c1.59,1.71,1.59,4.03,0.02,5.78c-0.79,0.88-1.63,1.7-2.47,2.53l-0.53,0.52
	c1.04,2.14,2.57,3.94,3.94,5.4c1.69,1.82,3.42,3.28,5.28,4.47c0.32,0.2,0.65,0.39,0.99,0.57c0.18,0.1,0.36,0.2,0.55,0.3l0.43-0.44
	c0.68-0.7,1.36-1.39,2.07-2.05c0.48-0.44,1.07-0.94,1.76-1.24c0.57-0.25,1.15-0.38,1.71-0.38c1.07,0,2.08,0.44,2.98,1.32
	c0.94,0.9,1.85,1.83,2.77,2.75c0.74,0.74,1.48,1.48,2.22,2.22c1.97,1.94,2.09,4.54,0.29,6.48c-1.34,1.44-2.48,2.63-3.72,3.75
	C38.9,44.63,37.42,45.16,35.58,45.16 M13.26,7.97c-0.34,0-0.69,0.19-1.09,0.57c-1,0.97-2,1.94-2.94,2.96
	c-0.38,0.41-0.7,0.91-0.9,1.39C7.85,14.04,8,15.29,8.24,16.47c0.46,2.28,1.33,4.53,2.65,6.86c4.49,7.93,10.8,13.74,18.75,17.26
	c2.07,0.92,3.98,1.4,5.83,1.47h0.01c1.23,0,2.08-0.31,2.74-0.95c1.14-1.1,2.25-2.24,3.31-3.4c0.6-0.65,0.59-1.28-0.02-1.92
	c-1.72-1.76-3.45-3.49-5.21-5.21c-0.25-0.24-0.51-0.36-0.8-0.36c-0.26,0-0.54,0.1-0.8,0.3c-0.17,0.12-0.33,0.28-0.48,0.43
	l-2.85,2.84c-0.49,0.49-1.04,0.74-1.61,0.74c-0.36,0-0.74-0.1-1.13-0.3c-0.57-0.29-1.13-0.58-1.68-0.91
	c-2.3-1.38-4.44-3.15-6.55-5.42c-1.48-1.61-3.35-3.79-4.55-6.47c-0.56-1.26-0.41-2.08,0.58-3.03c0.93-0.9,1.86-1.8,2.77-2.72
	c0.85-0.87,0.85-1.41,0.01-2.3l-0.98-0.98c-1.25-1.26-2.51-2.51-3.77-3.76c-0.25-0.25-0.48-0.42-0.7-0.52
	C13.58,8.01,13.42,7.97,13.26,7.97"/>
<path class="st0" d="M140.4-53.23h-14.57c-1.63,0-2.96,1.33-2.96,2.96v10.18c0,1.63,1.33,2.96,2.96,2.96h14.57
	c1.63,0,2.96-1.33,2.96-2.96v-10.18C143.35-51.9,142.03-53.23,140.4-53.23 M140.4-51.82c0.12,0,0.24,0.02,0.35,0.04l-6.15,6.98
	c-0.38,0.43-0.92,0.67-1.49,0.67c-0.57,0-1.11-0.24-1.49-0.67l-6.15-6.98c0.11-0.03,0.23-0.04,0.35-0.04H140.4z M141.94-40.1
	c0,0.85-0.69,1.54-1.54,1.54h-14.57c-0.85,0-1.54-0.69-1.54-1.54v-10.18c0-0.21,0.04-0.4,0.12-0.59l6.16,6.99
	c0.65,0.73,1.57,1.15,2.55,1.15c0.97,0,1.9-0.42,2.55-1.15l6.16-6.99c0.07,0.18,0.12,0.38,0.12,0.59V-40.1z"/>
<path class="st0" d="M188.21-54.33c-5.04,0-9.14,4.1-9.14,9.14c0,5.04,4.1,9.14,9.14,9.14c5.04,0,9.14-4.1,9.14-9.14
	C197.35-50.23,193.25-54.33,188.21-54.33 M196.06-45.82h-3.44c-0.09-2.85-0.75-5.27-1.76-6.79
	C193.71-51.58,195.81-48.96,196.06-45.82 M188.21-37.31c-1.43,0-3.01-2.95-3.15-7.25h6.3C191.22-40.25,189.64-37.31,188.21-37.31
	 M185.06-45.82c0.14-4.3,1.72-7.25,3.15-7.25c1.43,0,3.01,2.95,3.15,7.25H185.06z M185.56-52.6c-1.02,1.52-1.68,3.94-1.76,6.79
	h-3.44C180.61-48.96,182.71-51.58,185.56-52.6 M180.36-44.55h3.44c0.09,2.85,0.75,5.27,1.76,6.79
	C182.71-38.79,180.61-41.41,180.36-44.55 M190.86-37.77c1.02-1.52,1.68-3.94,1.76-6.79h3.44C195.81-41.41,193.71-38.79,190.86-37.77
	"/>
<path class="st0" d="M289.31-39.88c0.01-4.02,2.27-7.57,5.92-9.25c1.08-0.5,2.23-0.79,3.43-0.88l0.02,0v-4.43l8.82,7.18l-8.82,7.2
	v-4.4c-0.11,0.02-0.21,0.03-0.32,0.05c-0.37,0.05-0.72,0.1-1.07,0.19c-2.84,0.71-4.95,2.36-6.27,4.9c-0.32,0.61-0.59,1.26-0.85,1.89
	c-0.12,0.3-0.25,0.6-0.38,0.9c-0.04,0.08-0.08,0.18-0.17,0.27l-0.33,0.33V-39.88z M299.52-48.62c-2.15,0-4.06,0.68-5.65,2.01
	c-1.54,1.28-2.51,2.87-2.94,4.82c2.29-2.76,5.18-4.1,8.82-4.1l0.36,0v2.85l5.15-4.21l-5.17-4.21v2.85
	C300.09-48.61,299.64-48.62,299.52-48.62"/>
<g>
	<path class="st0" d="M243.31-36.34L243.31-36.34c-0.17,0-0.34-0.07-0.45-0.2c-0.26-0.28-6.43-6.96-6.43-10.62
		c0-3.79,3.09-6.88,6.88-6.88c3.79,0,6.88,3.08,6.88,6.88c0,3.66-6.17,10.34-6.43,10.62C243.64-36.41,243.48-36.34,243.31-36.34
		 M243.31-52.8c-3.11,0-5.65,2.53-5.65,5.65c0,2.43,3.73,7.13,5.65,9.29c1.91-2.16,5.65-6.86,5.65-9.29
		C248.96-50.27,246.42-52.8,243.31-52.8"/>
	<path class="st0" d="M243.31-44.36c-1.71,0-3.1-1.39-3.1-3.1c0-1.71,1.39-3.1,3.1-3.1c1.71,0,3.1,1.39,3.1,3.1
		C246.4-45.75,245.01-44.36,243.31-44.36 M243.31-49.32c-1.03,0-1.87,0.84-1.87,1.87c0,1.03,0.84,1.87,1.87,1.87
		c1.03,0,1.87-0.84,1.87-1.87C245.17-48.48,244.34-49.32,243.31-49.32"/>
</g>
<g>
	<path class="st0" d="M86.78-45.81v1.1c-0.01,0.06-0.03,0.11-0.03,0.17c-0.08,0.97-0.31,1.91-0.71,2.8
		c-2.06,4.57-7.59,6.49-12.03,4.18c-0.07-0.04-0.19-0.05-0.27-0.03c-1.03,0.26-2.06,0.53-3.09,0.8c-0.44,0.12-0.89,0.24-1.33,0.36
		h-0.07c0.4-1.45,0.8-2.9,1.19-4.35c0.02-0.09,0.01-0.2-0.03-0.28c-0.81-1.49-1.17-3.08-1.07-4.77c0.13-2.04,0.86-3.84,2.28-5.31
		c2.1-2.18,4.68-3.1,7.67-2.73c2,0.25,3.7,1.14,5.09,2.62c1.2,1.28,1.97,2.77,2.27,4.5C86.7-46.44,86.74-46.12,86.78-45.81
		 M71.36-38.53c0.07-0.01,0.12-0.02,0.17-0.03c0.8-0.21,1.6-0.41,2.4-0.62c0.12-0.03,0.21-0.02,0.32,0.05c1.67,1,3.46,1.32,5.38,0.9
		c3.82-0.82,6.32-4.59,5.57-8.41c-0.8-4.09-4.89-6.68-8.94-5.65c-3.15,0.8-5.41,3.67-5.46,6.93c-0.02,1.47,0.4,2.82,1.2,4.05
		c0.06,0.09,0.08,0.18,0.04,0.28c-0.16,0.55-0.31,1.11-0.46,1.66C71.51-39.1,71.44-38.83,71.36-38.53"/>
	<path class="st0" d="M80.34-41.12c-0.21-0.03-0.43-0.02-0.62-0.08c-1.12-0.33-2.2-0.76-3.11-1.51c-0.71-0.59-1.31-1.28-1.88-2
		c-0.38-0.47-0.7-0.97-0.91-1.54c-0.4-1.05-0.18-1.98,0.57-2.8c0.14-0.15,0.32-0.24,0.53-0.25c0.2-0.01,0.4,0,0.6,0.01
		c0.16,0.01,0.25,0.13,0.31,0.26c0.11,0.25,0.21,0.5,0.32,0.75c0.14,0.33,0.27,0.66,0.42,0.99c0.06,0.14,0.06,0.28-0.03,0.41
		c-0.17,0.23-0.33,0.46-0.51,0.68c-0.19,0.23-0.2,0.29-0.05,0.55c0.7,1.15,1.66,2,2.91,2.51c0.26,0.1,0.36,0.09,0.53-0.13
		c0.21-0.25,0.41-0.5,0.61-0.76c0.14-0.18,0.22-0.22,0.44-0.15c0.24,0.08,0.46,0.19,0.69,0.29c0.35,0.15,0.7,0.3,1.05,0.46
		c0.25,0.11,0.27,0.17,0.27,0.44c-0.01,1.17-0.93,1.68-1.78,1.83c-0.12,0.02-0.24,0.02-0.36,0.02
		C80.34-41.12,80.34-41.12,80.34-41.12"/>
</g>
</svg>
