<?xml version="1.0" encoding="utf-8"?>
<!-- Generator: Adobe Illustrator 24.0.3, SVG Export Plug-In . SVG Version: 6.00 Build 0)  -->
<svg version="1.1" id="Layer_1" xmlns="http://www.w3.org/2000/svg" xmlns:xlink="http://www.w3.org/1999/xlink" x="0px" y="0px"
	 viewBox="0 0 50 50" style="enable-background:new 0 0 50 50;" xml:space="preserve">
<style type="text/css">
	.st0{fill:#08335e;}
</style>
<path class="st0" d="M39.27,9.24H10.73c-3.2,0-5.79,2.6-5.79,5.79v19.94c0,3.2,2.6,5.79,5.79,5.79h28.54c3.2,0,5.79-2.6,5.79-5.79
	V15.03C45.06,11.84,42.47,9.24,39.27,9.24 M39.27,12.01c0.24,0,0.47,0.03,0.69,0.08L27.92,25.75c-0.74,0.84-1.8,1.32-2.92,1.32
	c-1.12,0-2.18-0.48-2.92-1.32L10.04,12.09c0.22-0.05,0.45-0.08,0.69-0.08H39.27z M42.29,34.97c0,1.67-1.36,3.02-3.02,3.02H10.73
	c-1.67,0-3.02-1.36-3.02-3.02V15.03c0-0.41,0.08-0.79,0.23-1.15L20,27.58c1.26,1.43,3.08,2.26,5,2.26c1.91,0,3.73-0.82,5-2.26
	l12.07-13.7c0.14,0.35,0.23,0.74,0.23,1.15V34.97z"/>
<path class="st0" d="M188.21-54.33c-5.04,0-9.14,4.1-9.14,9.14c0,5.04,4.1,9.14,9.14,9.14c5.04,0,9.14-4.1,9.14-9.14
	C197.35-50.23,193.25-54.33,188.21-54.33 M196.06-45.82h-3.44c-0.09-2.85-0.75-5.27-1.76-6.79
	C193.71-51.58,195.81-48.96,196.06-45.82 M188.21-37.31c-1.43,0-3.01-2.95-3.15-7.25h6.3C191.22-40.25,189.64-37.31,188.21-37.31
	 M185.06-45.82c0.14-4.3,1.72-7.25,3.15-7.25c1.43,0,3.01,2.95,3.15,7.25H185.06z M185.56-52.6c-1.02,1.52-1.68,3.94-1.76,6.79
	h-3.44C180.61-48.96,182.71-51.58,185.56-52.6 M180.36-44.55h3.44c0.09,2.85,0.75,5.27,1.76,6.79
	C182.71-38.79,180.61-41.41,180.36-44.55 M190.86-37.77c1.02-1.52,1.68-3.94,1.76-6.79h3.44C195.81-41.41,193.71-38.79,190.86-37.77
	"/>
<path class="st0" d="M289.31-39.88c0.01-4.02,2.27-7.57,5.92-9.25c1.08-0.5,2.23-0.79,3.43-0.88l0.02,0v-4.43l8.82,7.18l-8.82,7.2
	v-4.4c-0.11,0.02-0.21,0.03-0.32,0.05c-0.37,0.05-0.72,0.1-1.07,0.19c-2.84,0.71-4.95,2.36-6.27,4.9c-0.32,0.61-0.59,1.26-0.85,1.89
	c-0.12,0.3-0.25,0.6-0.38,0.9c-0.04,0.08-0.08,0.18-0.17,0.27l-0.33,0.33V-39.88z M299.52-48.62c-2.15,0-4.06,0.68-5.65,2.01
	c-1.54,1.28-2.51,2.87-2.94,4.82c2.29-2.76,5.18-4.1,8.82-4.1l0.36,0v2.85l5.15-4.21l-5.17-4.21v2.85
	C300.09-48.61,299.64-48.62,299.52-48.62"/>
<g>
	<path class="st0" d="M243.31-36.34L243.31-36.34c-0.17,0-0.34-0.07-0.45-0.2c-0.26-0.28-6.43-6.96-6.43-10.62
		c0-3.79,3.09-6.88,6.88-6.88c3.79,0,6.88,3.08,6.88,6.88c0,3.66-6.17,10.34-6.43,10.62C243.64-36.41,243.48-36.34,243.31-36.34
		 M243.31-52.8c-3.11,0-5.65,2.53-5.65,5.65c0,2.43,3.73,7.13,5.65,9.29c1.91-2.16,5.65-6.86,5.65-9.29
		C248.96-50.27,246.42-52.8,243.31-52.8"/>
	<path class="st0" d="M243.31-44.36c-1.71,0-3.1-1.39-3.1-3.1c0-1.71,1.39-3.1,3.1-3.1c1.71,0,3.1,1.39,3.1,3.1
		C246.4-45.75,245.01-44.36,243.31-44.36 M243.31-49.32c-1.03,0-1.87,0.84-1.87,1.87c0,1.03,0.84,1.87,1.87,1.87
		c1.03,0,1.87-0.84,1.87-1.87C245.17-48.48,244.34-49.32,243.31-49.32"/>
</g>
</svg>
