<?xml version="1.0" encoding="utf-8"?>
<!-- Generator: Adobe Illustrator 24.0.3, SVG Export Plug-In . SVG Version: 6.00 Build 0)  -->
<svg version="1.1" id="Layer_1" xmlns="http://www.w3.org/2000/svg" xmlns:xlink="http://www.w3.org/1999/xlink" x="0px" y="0px"
	 viewBox="0 0 50 50" style="enable-background:new 0 0 50 50;" xml:space="preserve">
<style type="text/css">
	.st0{fill:#08335e;}
</style>
<path class="st0" d="M289.31-39.88c0.01-4.02,2.27-7.57,5.92-9.25c1.08-0.5,2.23-0.79,3.43-0.88l0.02,0v-4.43l8.82,7.18l-8.82,7.2
	v-4.4c-0.11,0.02-0.21,0.03-0.32,0.05c-0.37,0.05-0.72,0.1-1.07,0.19c-2.84,0.71-4.95,2.36-6.27,4.9c-0.32,0.61-0.59,1.26-0.85,1.89
	c-0.12,0.3-0.25,0.6-0.38,0.9c-0.04,0.08-0.08,0.18-0.17,0.27l-0.33,0.33V-39.88z M299.52-48.62c-2.15,0-4.06,0.68-5.65,2.01
	c-1.54,1.28-2.51,2.87-2.94,4.82c2.29-2.76,5.18-4.1,8.82-4.1l0.36,0v2.85l5.15-4.21l-5.17-4.21v2.85
	C300.09-48.61,299.64-48.62,299.52-48.62"/>
<g>
	<path class="st0" d="M25,45L25,45c-0.39,0-0.76-0.16-1.02-0.44C23.39,43.92,9.45,28.82,9.45,20.55C9.45,11.97,16.43,5,25,5
		c8.57,0,15.55,6.97,15.55,15.55c0,8.27-13.94,23.37-14.53,24.01C25.76,44.84,25.39,45,25,45 M25,7.78
		c-7.04,0-12.77,5.73-12.77,12.77c0,5.49,8.44,16.12,12.77,20.99c4.33-4.88,12.77-15.5,12.77-20.99C37.77,13.51,32.04,7.78,25,7.78"
		/>
	<path class="st0" d="M25,26.87c-3.86,0-7-3.14-7-7c0-3.86,3.14-7,7-7c3.86,0,7,3.14,7,7C32,23.73,28.86,26.87,25,26.87 M25,15.65
		c-2.33,0-4.22,1.89-4.22,4.22c0,2.33,1.89,4.22,4.22,4.22c2.33,0,4.22-1.89,4.22-4.22C29.22,17.54,27.33,15.65,25,15.65"/>
</g>
</svg>
