<?xml version="1.0" encoding="utf-8"?>
<!-- Generator: Adobe Illustrator 24.0.3, SVG Export Plug-In . SVG Version: 6.00 Build 0)  -->
<svg version="1.1" id="Layer_1" xmlns="http://www.w3.org/2000/svg" xmlns:xlink="http://www.w3.org/1999/xlink" x="0px" y="0px"
	 viewBox="0 0 50 50" style="enable-background:new 0 0 50 50;" xml:space="preserve">
<style type="text/css">
	.st0{fill:#08335e;}
</style>
<path class="st0" d="M5.31,36.46c0.01-8.69,4.92-16.36,12.8-19.99c2.33-1.08,4.83-1.71,7.42-1.89l0.05,0V5l19.07,15.53L25.59,36.1
	v-9.52c-0.23,0.04-0.46,0.07-0.69,0.1c-0.79,0.11-1.55,0.22-2.3,0.41c-6.14,1.53-10.71,5.1-13.57,10.59
	C8.34,39,7.76,40.41,7.2,41.77c-0.27,0.65-0.54,1.3-0.82,1.94c-0.08,0.18-0.17,0.38-0.37,0.58L5.31,45V36.46z M27.39,17.57
	c-4.65,0-8.77,1.46-12.22,4.33c-3.33,2.77-5.42,6.19-6.36,10.43c4.94-5.96,11.2-8.87,19.06-8.87l0.78,0v6.16l11.14-9.1l-11.18-9.1
	v6.17C28.62,17.6,27.66,17.57,27.39,17.57"/>
</svg>
