<?xml version="1.0" encoding="utf-8"?>
<!-- Generator: Adobe Illustrator 24.0.3, SVG Export Plug-In . SVG Version: 6.00 Build 0)  -->
<svg version="1.1" id="Layer_1" xmlns="http://www.w3.org/2000/svg" xmlns:xlink="http://www.w3.org/1999/xlink" x="0px" y="0px"
	 viewBox="0 0 50 50" style="enable-background:new 0 0 50 50;" xml:space="preserve">
<style type="text/css">
	.st0{fill:#08335e;}
</style>
<path class="st0" d="M25,5.03C13.99,5.03,5.04,13.99,5.04,25c0,11.01,8.96,19.97,19.97,19.97c11.01,0,19.96-8.96,19.96-19.97
	C44.96,13.99,36.01,5.03,25,5.03 M42.15,23.62h-7.51C34.45,17.4,33,12.12,30.78,8.79C37.02,11.03,41.6,16.76,42.15,23.62 M25,42.21
	c-3.12,0-6.57-6.43-6.88-15.83h13.76C31.57,35.78,28.12,42.21,25,42.21 M18.12,23.62c0.31-9.4,3.77-15.83,6.88-15.83
	c3.12,0,6.57,6.43,6.88,15.83H18.12z M19.22,8.79c-2.22,3.32-3.67,8.6-3.86,14.83H7.85C8.4,16.76,12.98,11.03,19.22,8.79
	 M7.85,26.38h7.51c0.19,6.23,1.63,11.51,3.86,14.83C12.98,38.97,8.4,33.24,7.85,26.38 M30.78,41.21c2.22-3.32,3.67-8.6,3.86-14.83
	h7.51C41.6,33.24,37.02,38.97,30.78,41.21"/>
<path class="st0" d="M289.31-39.88c0.01-4.02,2.27-7.57,5.92-9.25c1.08-0.5,2.23-0.79,3.43-0.88l0.02,0v-4.43l8.82,7.18l-8.82,7.2
	v-4.4c-0.11,0.02-0.21,0.03-0.32,0.05c-0.37,0.05-0.72,0.1-1.07,0.19c-2.84,0.71-4.95,2.36-6.27,4.9c-0.32,0.61-0.59,1.26-0.85,1.89
	c-0.12,0.3-0.25,0.6-0.38,0.9c-0.04,0.08-0.08,0.18-0.17,0.27l-0.33,0.33V-39.88z M299.52-48.62c-2.15,0-4.06,0.68-5.65,2.01
	c-1.54,1.28-2.51,2.87-2.94,4.82c2.29-2.76,5.18-4.1,8.82-4.1l0.36,0v2.85l5.15-4.21l-5.17-4.21v2.85
	C300.09-48.61,299.64-48.62,299.52-48.62"/>
<g>
	<path class="st0" d="M243.31-36.34L243.31-36.34c-0.17,0-0.34-0.07-0.45-0.2c-0.26-0.28-6.43-6.96-6.43-10.62
		c0-3.79,3.09-6.88,6.88-6.88c3.79,0,6.88,3.08,6.88,6.88c0,3.66-6.17,10.34-6.43,10.62C243.64-36.41,243.48-36.34,243.31-36.34
		 M243.31-52.8c-3.11,0-5.65,2.53-5.65,5.65c0,2.43,3.73,7.13,5.65,9.29c1.91-2.16,5.65-6.86,5.65-9.29
		C248.96-50.27,246.42-52.8,243.31-52.8"/>
	<path class="st0" d="M243.31-44.36c-1.71,0-3.1-1.39-3.1-3.1c0-1.71,1.39-3.1,3.1-3.1c1.71,0,3.1,1.39,3.1,3.1
		C246.4-45.75,245.01-44.36,243.31-44.36 M243.31-49.32c-1.03,0-1.87,0.84-1.87,1.87c0,1.03,0.84,1.87,1.87,1.87
		c1.03,0,1.87-0.84,1.87-1.87C245.17-48.48,244.34-49.32,243.31-49.32"/>
</g>
</svg>
