<?xml version="1.0" encoding="utf-8"?>
<!-- Generator: Adobe Illustrator 24.0.3, SVG Export Plug-In . SVG Version: 6.00 Build 0)  -->
<svg version="1.1" id="Layer_1" xmlns="http://www.w3.org/2000/svg" xmlns:xlink="http://www.w3.org/1999/xlink" x="0px" y="0px"
	 viewBox="0 0 50 50" style="enable-background:new 0 0 50 50;" xml:space="preserve">
<style type="text/css">
	.st0{fill:#08335e;}
</style>
<path class="st0" d="M140.4-53.23h-14.57c-1.63,0-2.96,1.33-2.96,2.96v10.18c0,1.63,1.33,2.96,2.96,2.96h14.57
	c1.63,0,2.96-1.33,2.96-2.96v-10.18C143.35-51.9,142.03-53.23,140.4-53.23 M140.4-51.82c0.12,0,0.24,0.02,0.35,0.04l-6.15,6.98
	c-0.38,0.43-0.92,0.67-1.49,0.67c-0.57,0-1.11-0.24-1.49-0.67l-6.15-6.98c0.11-0.03,0.23-0.04,0.35-0.04H140.4z M141.94-40.1
	c0,0.85-0.69,1.54-1.54,1.54h-14.57c-0.85,0-1.54-0.69-1.54-1.54v-10.18c0-0.21,0.04-0.4,0.12-0.59l6.16,6.99
	c0.65,0.73,1.57,1.15,2.55,1.15c0.97,0,1.9-0.42,2.55-1.15l6.16-6.99c0.07,0.18,0.12,0.38,0.12,0.59V-40.1z"/>
<path class="st0" d="M188.21-54.33c-5.04,0-9.14,4.1-9.14,9.14c0,5.04,4.1,9.14,9.14,9.14c5.04,0,9.14-4.1,9.14-9.14
	C197.35-50.23,193.25-54.33,188.21-54.33 M196.06-45.82h-3.44c-0.09-2.85-0.75-5.27-1.76-6.79
	C193.71-51.58,195.81-48.96,196.06-45.82 M188.21-37.31c-1.43,0-3.01-2.95-3.15-7.25h6.3C191.22-40.25,189.64-37.31,188.21-37.31
	 M185.06-45.82c0.14-4.3,1.72-7.25,3.15-7.25c1.43,0,3.01,2.95,3.15,7.25H185.06z M185.56-52.6c-1.02,1.52-1.68,3.94-1.76,6.79
	h-3.44C180.61-48.96,182.71-51.58,185.56-52.6 M180.36-44.55h3.44c0.09,2.85,0.75,5.27,1.76,6.79
	C182.71-38.79,180.61-41.41,180.36-44.55 M190.86-37.77c1.02-1.52,1.68-3.94,1.76-6.79h3.44C195.81-41.41,193.71-38.79,190.86-37.77
	"/>
<path class="st0" d="M289.31-39.88c0.01-4.02,2.27-7.57,5.92-9.25c1.08-0.5,2.23-0.79,3.43-0.88l0.02,0v-4.43l8.82,7.18l-8.82,7.2
	v-4.4c-0.11,0.02-0.21,0.03-0.32,0.05c-0.37,0.05-0.72,0.1-1.07,0.19c-2.84,0.71-4.95,2.36-6.27,4.9c-0.32,0.61-0.59,1.26-0.85,1.89
	c-0.12,0.3-0.25,0.6-0.38,0.9c-0.04,0.08-0.08,0.18-0.17,0.27l-0.33,0.33V-39.88z M299.52-48.62c-2.15,0-4.06,0.68-5.65,2.01
	c-1.54,1.28-2.51,2.87-2.94,4.82c2.29-2.76,5.18-4.1,8.82-4.1l0.36,0v2.85l5.15-4.21l-5.17-4.21v2.85
	C300.09-48.61,299.64-48.62,299.52-48.62"/>
<g>
	<path class="st0" d="M243.31-36.34L243.31-36.34c-0.17,0-0.34-0.07-0.45-0.2c-0.26-0.28-6.43-6.96-6.43-10.62
		c0-3.79,3.09-6.88,6.88-6.88c3.79,0,6.88,3.08,6.88,6.88c0,3.66-6.17,10.34-6.43,10.62C243.64-36.41,243.48-36.34,243.31-36.34
		 M243.31-52.8c-3.11,0-5.65,2.53-5.65,5.65c0,2.43,3.73,7.13,5.65,9.29c1.91-2.16,5.65-6.86,5.65-9.29
		C248.96-50.27,246.42-52.8,243.31-52.8"/>
	<path class="st0" d="M243.31-44.36c-1.71,0-3.1-1.39-3.1-3.1c0-1.71,1.39-3.1,3.1-3.1c1.71,0,3.1,1.39,3.1,3.1
		C246.4-45.75,245.01-44.36,243.31-44.36 M243.31-49.32c-1.03,0-1.87,0.84-1.87,1.87c0,1.03,0.84,1.87,1.87,1.87
		c1.03,0,1.87-0.84,1.87-1.87C245.17-48.48,244.34-49.32,243.31-49.32"/>
</g>
<g>
	<path class="st0" d="M44.92,23.59v2.49c-0.03,0.13-0.06,0.25-0.07,0.38c-0.17,2.21-0.7,4.34-1.61,6.37
		c-4.68,10.4-17.24,14.76-27.35,9.51c-0.17-0.09-0.42-0.12-0.61-0.07c-2.34,0.59-4.69,1.2-7.03,1.82c-1.01,0.26-2.02,0.55-3.02,0.83
		H5.08c0.9-3.29,1.82-6.59,2.71-9.89c0.05-0.2,0.02-0.47-0.08-0.64c-1.84-3.39-2.66-7-2.42-10.85c0.29-4.63,1.95-8.72,5.17-12.06
		c4.76-4.95,10.63-7.05,17.44-6.21c4.54,0.56,8.42,2.58,11.57,5.95c2.72,2.91,4.47,6.29,5.15,10.22
		C44.75,22.15,44.82,22.87,44.92,23.59 M9.87,40.12c0.17-0.03,0.28-0.05,0.39-0.08c1.82-0.47,3.63-0.94,5.45-1.42
		c0.27-0.07,0.48-0.03,0.72,0.11c3.8,2.28,7.87,2.99,12.22,2.05c8.69-1.87,14.36-10.42,12.66-19.12C39.49,12.37,30.19,6.49,21,8.83
		c-7.17,1.83-12.31,8.35-12.4,15.75c-0.04,3.35,0.9,6.41,2.74,9.21c0.14,0.21,0.18,0.4,0.1,0.65c-0.36,1.26-0.7,2.52-1.05,3.78
		C10.22,38.84,10.05,39.45,9.87,40.12"/>
	<path class="st0" d="M30.29,34.25c-0.48-0.06-0.97-0.05-1.42-0.19c-2.55-0.74-4.99-1.72-7.07-3.44c-1.62-1.34-2.98-2.92-4.28-4.55
		c-0.85-1.07-1.58-2.21-2.07-3.5c-0.91-2.38-0.42-4.5,1.3-6.35c0.32-0.35,0.72-0.55,1.2-0.57c0.45-0.02,0.91-0.01,1.36,0.01
		c0.37,0.02,0.57,0.3,0.71,0.6c0.25,0.57,0.49,1.14,0.73,1.71c0.32,0.75,0.62,1.51,0.95,2.25c0.14,0.33,0.14,0.64-0.06,0.92
		c-0.38,0.53-0.76,1.05-1.16,1.55c-0.43,0.53-0.45,0.67-0.11,1.24c1.58,2.62,3.77,4.55,6.62,5.71c0.6,0.24,0.81,0.2,1.22-0.29
		c0.47-0.57,0.94-1.14,1.39-1.72c0.33-0.42,0.51-0.51,1-0.33c0.53,0.19,1.05,0.44,1.57,0.67c0.8,0.35,1.6,0.69,2.4,1.04
		c0.56,0.25,0.61,0.39,0.61,0.99c-0.03,2.65-2.11,3.82-4.05,4.16c-0.27,0.05-0.54,0.04-0.81,0.05
		C30.29,34.23,30.29,34.24,30.29,34.25"/>
</g>
</svg>
